<svg width="28" height="20" viewBox="0 0 28 20" fill="none" xmlns="http://www.w3.org/2000/svg">
<path d="M0.666666 18.0067C0.666666 18.74 1.26133 19.3333 1.99333 19.3333H12.6733C13.0252 19.3333 13.3626 19.1936 13.6114 18.9448C13.8602 18.696 14 18.3585 14 18.0067C14 17.6548 13.8602 17.3174 13.6114 17.0686C13.3626 16.8198 13.0252 16.68 12.6733 16.68H1.99333C1.26 16.68 0.666666 17.2733 0.666666 18.0067Z" fill="white"/>
<path d="M0.666645 10C0.666645 10.7333 1.26131 11.3267 1.99331 11.3267H26.0066C26.3585 11.3267 26.6959 11.1869 26.9447 10.9381C27.1935 10.6893 27.3333 10.3519 27.3333 10C27.3333 9.64815 27.1935 9.31071 26.9447 9.06191C26.6959 8.81311 26.3585 8.67334 26.0066 8.67334H1.99331C1.25998 8.67334 0.666645 9.26801 0.666645 10Z" fill="white"/>
<path d="M1.99331 3.31999C1.64146 3.31999 1.30402 3.18022 1.05522 2.93142C0.806419 2.68262 0.666645 2.34518 0.666645 1.99332C0.666645 1.64147 0.806419 1.30403 1.05522 1.05523C1.30402 0.80643 1.64146 0.666657 1.99331 0.666656H18.0066C18.1809 0.666656 18.3534 0.700972 18.5143 0.767643C18.6753 0.834314 18.8215 0.932036 18.9447 1.05523C19.0679 1.17842 19.1657 1.32467 19.2323 1.48563C19.299 1.64659 19.3333 1.8191 19.3333 1.99332C19.3333 2.16754 19.299 2.34006 19.2323 2.50102C19.1657 2.66198 19.0679 2.80823 18.9447 2.93142C18.8215 3.05461 18.6753 3.15233 18.5143 3.219C18.3534 3.28568 18.1809 3.31999 18.0066 3.31999H1.99331Z" fill="white"/>
</svg>
