<svg width="24" height="24" viewBox="0 0 24 24" fill="none" xmlns="http://www.w3.org/2000/svg">
<path d="M19.26 9.696L20.645 18.696C20.6888 18.9808 20.6705 19.2718 20.5914 19.5489C20.5123 19.8261 20.3743 20.0828 20.1867 20.3016C19.9992 20.5204 19.7665 20.6961 19.5047 20.8167C19.243 20.9372 18.9582 20.9997 18.67 21H5.33001C5.04164 21 4.75668 20.9377 4.49465 20.8173C4.23263 20.6969 3.99974 20.5212 3.81196 20.3024C3.62417 20.0836 3.48593 19.8267 3.40672 19.5494C3.3275 19.2721 3.30918 18.981 3.35301 18.696L4.73801 9.696C4.81066 9.22359 5.05009 8.79282 5.41294 8.4817C5.77578 8.17059 6.23805 7.9997 6.71601 8H17.284C17.7618 7.99994 18.2238 8.17094 18.5865 8.48203C18.9491 8.79312 19.1884 9.22376 19.261 9.696H19.26Z" stroke="#232F3E" stroke-linecap="round" stroke-linejoin="round"/>
<path d="M14 5C14 4.46957 13.7893 3.96086 13.4142 3.58579C13.0391 3.21071 12.5304 3 12 3C11.4696 3 10.9609 3.21071 10.5858 3.58579C10.2107 3.96086 10 4.46957 10 5" stroke="#232F3E" stroke-linecap="round" stroke-linejoin="round"/>
<circle cx="19" cy="7" r="3.5" fill="#DD6363" stroke="#F2F2F2"/>
</svg>
